<svg width="91" height="91" viewBox="0 0 91 91" fill="none" xmlns="http://www.w3.org/2000/svg">
<path d="M69.6408 24.1411C81.4372 37.4737 80.1918 57.8448 66.8592 69.6411C53.5266 81.4375 33.1556 80.1921 21.3592 66.8595C9.56284 53.527 10.8082 33.1559 24.1408 21.3595C37.4734 9.56318 57.8444 10.8085 69.6408 24.1411ZM25.9689 62.781C35.5127 73.5678 51.9939 74.5753 62.7807 65.0315C73.5674 55.4876 74.575 39.0064 65.0311 28.2197C55.4873 17.4329 39.0061 16.4253 28.2193 25.9692C17.4326 35.5131 16.425 51.9943 25.9689 62.781Z" fill="#CFD7D3"/>
<path d="M53.3853 14.2458C47.7722 12.8297 41.8814 12.9514 36.3315 14.598C30.7817 16.2447 25.7778 19.3556 21.8454 23.604C17.913 27.8523 15.1972 33.0812 13.9835 38.7415C12.7697 44.4018 13.1027 50.2845 14.9474 55.7717C16.7922 61.2588 20.0806 66.1479 24.4673 69.9254C28.854 73.7028 34.177 76.2292 39.8772 77.2391C45.5774 78.249 51.4444 77.7051 56.8618 75.6647C62.2793 73.6242 67.0472 70.1624 70.6648 65.643L65.8597 61.7967C62.9329 65.4532 59.0754 68.2539 54.6924 69.9047C50.3094 71.5556 45.5627 71.9956 40.951 71.1785C36.3392 70.3615 32.0326 68.3175 28.4836 65.2614C24.9345 62.2052 22.274 58.2497 20.7815 53.8103C19.289 49.3709 19.0196 44.6115 20.0016 40.032C20.9836 35.4526 23.1808 31.2221 26.3623 27.785C29.5438 24.3479 33.5922 21.831 38.0823 20.4987C42.5724 19.1665 47.3384 19.068 51.8797 20.2137L53.3853 14.2458Z" fill="#6FAEF7"/>
<path d="M25.96 47.1105V45.5905H28.44V43.1105H29.96V45.5905H32.44V47.1105H29.96V49.5905H28.44V47.1105H25.96ZM34.0463 48.2305C34.0463 47.2598 34.4196 46.4865 35.1663 45.9105C35.4863 45.6865 35.8596 45.5158 36.2863 45.3985V45.3025C35.9556 45.1745 35.6623 44.9985 35.4062 44.7745C34.8196 44.2732 34.5263 43.6118 34.5263 42.7905C34.5263 41.9478 34.8836 41.2332 35.5983 40.6465C36.3236 40.0492 37.2996 39.7505 38.5263 39.7505C39.7529 39.7505 40.7236 40.0492 41.4383 40.6465C42.1636 41.2332 42.5263 41.9478 42.5263 42.7905C42.5263 43.5905 42.2329 44.2518 41.6463 44.7745C41.3689 44.9985 41.0756 45.1745 40.7663 45.3025V45.3985C41.1716 45.5052 41.5449 45.6812 41.8863 45.9265C42.6329 46.5025 43.0063 47.2705 43.0063 48.2305C43.0063 49.1585 42.6009 49.9532 41.7903 50.6145C40.9903 51.2652 39.9023 51.5905 38.5263 51.5905C37.1503 51.5905 36.0569 51.2652 35.2463 50.6145C34.4463 49.9532 34.0463 49.1585 34.0463 48.2305ZM36.4463 42.9505C36.4463 43.4198 36.6276 43.8038 36.9903 44.1025C37.3529 44.4012 37.8649 44.5505 38.5263 44.5505C39.1876 44.5505 39.6996 44.4012 40.0623 44.1025C40.4249 43.8038 40.6063 43.4198 40.6063 42.9505C40.6063 42.5238 40.4196 42.1665 40.0463 41.8785C39.6836 41.5798 39.1769 41.4305 38.5263 41.4305C37.8756 41.4305 37.3636 41.5798 36.9903 41.8785C36.6276 42.1665 36.4463 42.5238 36.4463 42.9505ZM36.6383 46.7745C36.1903 47.1265 35.9663 47.5585 35.9663 48.0705C35.9663 48.5825 36.1903 49.0198 36.6383 49.3825C37.0969 49.7345 37.7263 49.9105 38.5263 49.9105C39.3263 49.9105 39.9503 49.7345 40.3983 49.3825C40.8569 49.0198 41.0863 48.5825 41.0863 48.0705C41.0863 47.5585 40.8569 47.1265 40.3983 46.7745C39.9503 46.4118 39.3263 46.2305 38.5263 46.2305C37.7263 46.2305 37.0969 46.4118 36.6383 46.7745ZM44.2006 47.5905C44.2006 47.0785 44.3126 46.5452 44.5366 45.9905C44.7713 45.4252 44.9953 44.9825 45.2086 44.6625C45.4326 44.3318 45.7366 43.9212 46.1206 43.4305L48.6806 40.0705H50.8406L48.4246 43.2225L47.7206 43.8305V43.9105L48.0406 43.7985C48.3606 43.7132 48.7073 43.6705 49.0806 43.6705C50.126 43.6705 51.0113 44.0492 51.7366 44.8065C52.4726 45.5532 52.8406 46.4812 52.8406 47.5905C52.8406 48.7212 52.4353 49.6705 51.6246 50.4385C50.814 51.2065 49.7793 51.5905 48.5206 51.5905C47.262 51.5905 46.2273 51.2065 45.4166 50.4385C44.606 49.6705 44.2006 48.7212 44.2006 47.5905ZM46.7766 45.9265C46.3393 46.3532 46.1206 46.9078 46.1206 47.5905C46.1206 48.2732 46.3393 48.8332 46.7766 49.2705C47.214 49.6972 47.7953 49.9105 48.5206 49.9105C49.246 49.9105 49.8273 49.6972 50.2646 49.2705C50.702 48.8332 50.9206 48.2732 50.9206 47.5905C50.9206 46.9078 50.702 46.3532 50.2646 45.9265C49.8273 45.4892 49.246 45.2705 48.5206 45.2705C47.7953 45.2705 47.214 45.4892 46.7766 45.9265ZM54.8924 44.4225C54.3804 43.8998 54.1244 43.2758 54.1244 42.5505C54.1244 41.8252 54.3804 41.2065 54.8924 40.6945C55.415 40.1718 56.039 39.9105 56.7644 39.9105C57.4897 39.9105 58.1084 40.1718 58.6204 40.6945C59.143 41.2065 59.4044 41.8252 59.4044 42.5505C59.4044 43.2758 59.143 43.8998 58.6204 44.4225C58.1084 44.9345 57.4897 45.1905 56.7644 45.1905C56.039 45.1905 55.415 44.9345 54.8924 44.4225ZM55.4844 51.2705L62.2044 40.0705H63.8044L57.0844 51.2705H55.4844ZM55.8524 41.5745C55.607 41.8198 55.4844 42.1452 55.4844 42.5505C55.4844 42.9558 55.607 43.2865 55.8524 43.5425C56.0977 43.7878 56.4017 43.9105 56.7644 43.9105C57.127 43.9105 57.431 43.7878 57.6764 43.5425C57.9217 43.2865 58.0444 42.9558 58.0444 42.5505C58.0444 42.1452 57.9217 41.8198 57.6764 41.5745C57.431 41.3185 57.127 41.1905 56.7644 41.1905C56.4017 41.1905 56.0977 41.3185 55.8524 41.5745ZM60.6524 50.6625C60.1404 50.1398 59.8844 49.5158 59.8844 48.7905C59.8844 48.0652 60.1404 47.4465 60.6524 46.9345C61.175 46.4118 61.799 46.1505 62.5244 46.1505C63.2497 46.1505 63.8684 46.4118 64.3804 46.9345C64.903 47.4465 65.1644 48.0652 65.1644 48.7905C65.1644 49.5158 64.903 50.1398 64.3804 50.6625C63.8684 51.1745 63.2497 51.4305 62.5244 51.4305C61.799 51.4305 61.175 51.1745 60.6524 50.6625ZM61.6124 47.8145C61.367 48.0598 61.2444 48.3852 61.2444 48.7905C61.2444 49.1958 61.367 49.5265 61.6124 49.7825C61.8577 50.0278 62.1617 50.1505 62.5244 50.1505C62.887 50.1505 63.191 50.0278 63.4364 49.7825C63.6817 49.5265 63.8044 49.1958 63.8044 48.7905C63.8044 48.3852 63.6817 48.0598 63.4364 47.8145C63.191 47.5585 62.887 47.4305 62.5244 47.4305C62.1617 47.4305 61.8577 47.5585 61.6124 47.8145Z" fill="black" fill-opacity="0.8"/>
</svg>
